<svg width="79" height="23" viewBox="0 0 79 23" fill="none" xmlns="http://www.w3.org/2000/svg">
<g clip-path="url(#clip0_80_975)">
<path d="M51.5094 4.24462C52.4031 4.23925 53.2967 4.23887 54.19 4.24352C54.1492 7.08748 54.1763 10.0938 54.1949 12.9437L59.8553 4.24485C60.8045 4.21107 61.9558 4.24165 62.9203 4.2426L62.9177 17.9314C62.8144 17.9198 62.654 17.9168 62.5461 17.9118C61.6551 17.9069 60.7638 17.9092 59.8728 17.9185L59.8671 9.1616C59.2204 10.2171 58.4704 11.3213 57.7886 12.3629L54.1561 17.9207C53.1938 17.8913 52.0727 17.903 51.107 17.9184L51.1043 7.82396C51.1043 7.42988 51.0552 4.53749 51.1329 4.29866C51.2522 4.2228 51.3475 4.24858 51.5094 4.24462Z" fill="white"/>
<path d="M31.7718 4.04892C32.7113 3.90041 33.9831 4.11609 34.8911 4.38851C37.3781 5.13478 38.6847 7.81344 37.8701 10.2768C36.9699 12.9992 33.2968 13.9791 30.9333 15.1476C31.6609 15.0934 32.7779 15.1268 33.5226 15.1271L38.424 15.1236C38.4644 15.9513 38.4431 17.0972 38.424 17.9272C37.6689 17.8654 36.1533 17.9104 35.3577 17.9104L29.3248 17.9111C28.4138 17.905 27.5027 17.908 26.5918 17.9202C26.5409 16.657 26.58 15.1419 26.5826 13.8551C28.5872 13.199 32.7188 11.7837 34.2014 10.4517C34.6151 10.08 34.8758 9.59553 34.9036 9.03551C34.9302 8.49901 34.7416 7.93769 34.3786 7.5395C33.9468 7.06588 33.316 6.8387 32.6857 6.80987C31.9502 6.77629 31.1642 6.99596 30.6161 7.49879C30.0029 8.06137 29.7996 8.8014 29.7685 9.60258C28.7346 9.57756 27.6254 9.5961 26.5857 9.59671C26.5517 7.84535 27.2806 6.1334 28.736 5.11818C29.7262 4.4275 30.6126 4.23212 31.7718 4.04892Z" fill="white"/>
<path d="M40.3816 4.24666C43.3251 4.19479 46.4345 4.23927 49.386 4.24247L49.3845 7.02931C48.894 6.98046 47.7824 7.01046 47.2572 7.01046L43.2405 7.02006L43.2417 11.976L43.2413 17.9261C42.5733 17.8739 40.8565 17.8943 40.1644 17.9236L40.1614 9.23956L40.1671 5.71818C40.1682 5.28739 40.1259 4.85767 40.1636 4.42925C40.18 4.24117 40.2258 4.26219 40.3816 4.24666Z" fill="white"/>
<path d="M4.85407 0H16.7909C17.2255 0.0637308 17.5222 0.0599248 17.9987 0.155033C19.2148 0.397803 20.1361 0.95642 20.8895 1.9326C21.9964 3.36681 21.9224 5.09656 21.9146 6.8304L21.9144 7.70709C21.9147 10.377 21.9596 13.1724 21.9122 15.8312L21.9116 16.7152C21.8375 18.3929 21.601 19.6618 20.3148 20.8485C18.9266 22.1293 17.4024 22.1309 15.6452 22.1545C14.4296 22.1677 13.214 22.1688 11.9984 22.1575L7.65134 22.1542C6.67411 22.1538 5.71408 22.1433 4.73674 22.1234C3.21121 22.0924 1.46674 21.4038 0.632885 20.0487C0.454143 19.7642 0.342942 19.5432 0.193838 19.2407C0.122388 19.1502 0.0419174 18.8819 0 18.7598V4.27626V3.41499V3.37721C0.194499 2.82858 0.387834 2.39955 0.74281 1.92949C1.42908 1.0112 2.4346 0.382948 3.56132 0.168482C4.06461 0.0705465 4.38457 0.0659294 4.85407 0Z" fill="#FEFEFE"/>
<path d="M4.85407 0H16.7909C17.2255 0.0637308 17.5222 0.0599248 17.9987 0.155033C19.2148 0.397803 20.1361 0.95642 20.8895 1.9326C21.9964 3.36681 21.9224 5.09656 21.9146 6.8304C19.9052 6.46839 17.6719 6.24292 15.6626 5.81941C15.4795 5.78083 14.9869 5.17725 14.7889 5.01587C13.1078 3.64564 10.773 3.28097 8.73214 3.981C8.28874 4.13312 7.86364 4.35916 7.44368 4.57145C5.00361 4.24976 2.42336 3.70517 0 3.41499V3.37721C0.194499 2.82858 0.387833 2.39955 0.74281 1.92949C1.42908 1.0112 2.4346 0.382948 3.56132 0.168482C4.06461 0.0705465 4.38457 0.0659294 4.85407 0Z" fill="#FEB919"/>
<path d="M0 4.27637C0.634017 4.41402 1.41766 4.50503 2.07145 4.6072L6.54351 5.31135C4.57965 7.29892 4.34867 9.7584 5.29419 12.325C5.45059 12.7495 5.63763 13.1367 5.82299 13.5475C6.83577 13.5409 7.79325 13.5377 8.59381 14.3011C9.42184 15.0908 9.53136 16.5351 9.5378 17.6314C9.53811 17.6825 9.53776 17.7335 9.53681 17.7844C8.4945 17.9042 7.40931 18.0935 6.36829 18.2592L2.39429 18.8827C2.10069 18.9295 0.347374 19.1754 0.193838 19.2408C0.122388 19.1503 0.0419174 18.882 0 18.7599V4.27637Z" fill="#18AB1D"/>
<path d="M21.9115 16.7153C21.8374 18.393 21.601 19.662 20.3147 20.8487C18.9265 22.1295 17.4023 22.1311 15.6451 22.1546C14.4296 22.1679 13.2139 22.1689 11.9983 22.1577L7.65127 22.1544C6.67404 22.154 5.714 22.1434 4.73666 22.1236C3.21114 22.0926 1.46666 21.4039 0.632812 20.0489C2.08147 19.7711 3.73252 19.5425 5.20182 19.3196L10.855 18.4361L17.975 17.3253C19.2493 17.1256 20.6399 16.8748 21.9115 16.7153Z" fill="#83D914"/>
<path d="M16.2376 6.83228C18.1199 7.08546 20.0317 7.42973 21.9145 7.70714C21.9148 10.377 21.9597 13.1725 21.9122 15.8312L12.0978 17.3689C12.1882 16.2669 12.2073 15.1365 13.0534 14.2979C13.8187 13.5392 14.8308 13.5424 15.8228 13.5467C16.8515 11.1808 17.4129 9.28878 16.2376 6.83228Z" fill="#18AB1D"/>
<path d="M10.5063 4.50922C11.1784 4.39994 12.3436 4.65986 12.9731 4.92813C14.1916 5.44292 15.1565 6.41896 15.6566 7.64274C16.3206 9.30122 15.9633 11.067 15.2824 12.6535C14.8781 12.6938 14.5769 12.7013 14.1824 12.7869C12.2355 13.2097 11.4085 14.7079 11.2956 16.5909C11.2863 16.7459 11.2482 17.3979 11.1889 17.4902C10.8833 17.5608 10.7216 17.586 10.4092 17.6153C10.4265 15.0524 9.6094 12.8747 6.74986 12.686C6.61561 12.6771 6.47849 12.6662 6.3437 12.6576C5.99653 11.7506 5.76651 11.1193 5.66857 10.1417C5.35859 7.04745 7.44207 4.75822 10.5063 4.50922Z" fill="#0074FB"/>
<path d="M78.0468 13.964C77.341 15.6299 76.5095 16.6908 74.8038 17.4701C72.949 18.3173 70.4308 18.3445 68.5303 17.6105C66.879 16.9905 65.5483 15.7301 64.8402 14.1154C64.067 12.3588 64.0407 10.0658 64.7396 8.28277C65.3714 6.64854 66.6378 5.33912 68.2509 4.65232C71.3217 3.31766 75.7812 4.03354 77.5289 7.12167C77.7305 7.47846 77.8845 7.82388 78.0468 8.19846V9.3893C77.0971 9.37399 76.0579 9.41295 75.1296 9.3794C74.7828 8.413 74.2035 7.61368 73.2527 7.18609C71.164 6.24692 68.6884 7.11493 67.7273 9.20858C66.7468 11.3447 67.5829 13.9738 69.7326 14.9689C70.7105 15.4236 71.829 15.4728 72.8431 15.1058C73.8015 14.7523 74.5599 14.078 74.9871 13.1486C75.045 13.0244 75.0945 12.8966 75.1357 12.7659L78.0468 12.7701V13.964Z" fill="white"/>
</g>
<defs>
<clipPath id="clip0_80_975">
<rect width="78.0469" height="22.2" fill="white"/>
</clipPath>
</defs>
</svg>
